<?xml version="1.0" encoding="UTF-8" standalone="no"?>
<svg width="38px" height="34px" viewBox="0 0 38 34" version="1.1" xmlns="http://www.w3.org/2000/svg" xmlns:xlink="http://www.w3.org/1999/xlink">
    <!-- Generator: Sketch 45.1 (43504) - http://www.bohemiancoding.com/sketch -->
    <title>heartHover</title>
    <desc>Created with Sketch.</desc>
    <defs></defs>
    <g id="Final" stroke="none" stroke-width="1" fill="none" fill-rule="evenodd">
        <g id="heartHover" transform="translate(1.000000, -1.000000)" stroke="#FFFFFF" stroke-width="2" fill="#1F1F1F">
            <path d="M18,33.58125 L2.8125,18.3585938 C1.87499531,17.4210891 1.17187734,16.3664121 0.703125,15.1945313 C0.234372656,14.0226504 0,12.8273498 0,11.6085938 C0,10.3664 0.234372656,9.15938086 0.703125,7.9875 C1.17187734,6.81561914 1.87499531,5.76094219 2.8125,4.8234375 C3.72656707,3.90937043 4.76952539,3.21797109 5.94140625,2.74921875 C7.11328711,2.28046641 8.30858766,2.04609375 9.52734375,2.04609375 C10.7226622,2.04609375 11.9062441,2.28046641 13.078125,2.74921875 C14.2500059,3.21797109 15.2929642,3.90937043 16.2070312,4.8234375 L18,6.61640625 L19.7929688,4.8234375 C20.7070358,3.90937043 21.7499941,3.21797109 22.921875,2.74921875 C24.0937559,2.28046641 25.2773378,2.04609375 26.4726562,2.04609375 C27.6914123,2.04609375 28.8867129,2.28046641 30.0585938,2.74921875 C31.2304746,3.21797109 32.2734329,3.90937043 33.1875,4.8234375 C34.1250047,5.76094219 34.8281227,6.81561914 35.296875,7.9875 C35.7656273,9.15938086 36,10.3664 36,11.6085938 C36,12.8273498 35.7656273,14.0226504 35.296875,15.1945313 C34.8281227,16.3664121 34.1250047,17.4210891 33.1875,18.3585938 L18,33.58125 Z" id=""></path>
        </g>
    </g>
</svg>