<?xml version="1.0" encoding="UTF-8" standalone="no"?>
<svg width="38px" height="35px" viewBox="0 0 38 35" version="1.1" xmlns="http://www.w3.org/2000/svg" xmlns:xlink="http://www.w3.org/1999/xlink">
    <!-- Generator: Sketch 45.1 (43504) - http://www.bohemiancoding.com/sketch -->
    <title>heart</title>
    <desc>Created with Sketch.</desc>
    <defs></defs>
    <g id="Final" stroke="none" stroke-width="1" fill="none" fill-rule="evenodd" fill-opacity="0.47">
        <g id="heart" transform="translate(1.000000, 1.000000)" stroke="#FFFFFF" stroke-width="2" fill="#000000">
            <path d="M18,31.78125 L2.8125,16.5585937 C1.87499531,15.6210891 1.17187734,14.5664121 0.703125,13.3945312 C0.234372656,12.2226504 0,11.0273498 0,9.80859375 C0,8.56640004 0.234372656,7.35938086 0.703125,6.1875 C1.17187734,5.01561914 1.87499531,3.96094219 2.8125,3.0234375 C3.72656707,2.10937043 4.76952539,1.41797109 5.94140625,0.94921875 C7.11328711,0.480466406 8.30858766,0.24609375 9.52734375,0.24609375 C10.7226622,0.24609375 11.9062441,0.480466406 13.078125,0.94921875 C14.2500059,1.41797109 15.2929642,2.10937043 16.2070312,3.0234375 L18,4.81640625 L19.7929688,3.0234375 C20.7070358,2.10937043 21.7499941,1.41797109 22.921875,0.94921875 C24.0937559,0.480466406 25.2773378,0.24609375 26.4726562,0.24609375 C27.6914123,0.24609375 28.8867129,0.480466406 30.0585938,0.94921875 C31.2304746,1.41797109 32.2734329,2.10937043 33.1875,3.0234375 C34.1250047,3.96094219 34.8281227,5.01561914 35.296875,6.1875 C35.7656273,7.35938086 36,8.56640004 36,9.80859375 C36,11.0273498 35.7656273,12.2226504 35.296875,13.3945312 C34.8281227,14.5664121 34.1250047,15.6210891 33.1875,16.5585937 L18,31.78125 Z" id=""></path>
        </g>
    </g>
</svg>